<svg width="32" height="32" xmlns="http://www.w3.org/2000/svg" data-name="Layer 1">

 <g>
  <title>Layer 1</title>
  <path id="svg_1" d="m16,32c-8.83978,0 -16,-7.16022 -16,-16c0,-8.83978 7.16022,-16 16,-16c8.83978,0 16,7.16022 16,16c0,8.83978 -7.16022,16 -16,16z" opacity="undefined" stroke-width="0" stroke="null" fill="#231f20"/>
  <path stroke="null" id="svg_2" fill="#fff" d="m7.66472,6.21746l8.70112,0c6.26617,0 10.06941,3.94085 10.06941,9.98778c0,6.403 -4.15931,9.57729 -10.06941,9.57729l-8.70112,0l0.02721,-2.57255l0,-14.41997l-0.02721,-2.57255zm6.67666,15.07691l1.17627,0c2.24369,0 3.77603,-1.36752 3.77603,-5.25317c0,-3.85844 -1.50513,-5.30836 -3.77603,-5.30836l-1.17627,0l0,10.56153z" class="cls-2"/>
 </g>
</svg>